<?xml version="1.0" encoding="utf-8"?>
<!-- Generator: Adobe Illustrator 27.5.0, SVG Export Plug-In . SVG Version: 6.00 Build 0)  -->
<svg version="1.1" id="Layer_1" xmlns="http://www.w3.org/2000/svg" xmlns:xlink="http://www.w3.org/1999/xlink" x="0px" y="0px"
	 viewBox="0 0 500 500" style="enable-background:new 0 0 500 500;" xml:space="preserve">
<rect style="fill:#FFFFFF;" width="500" height="500"/>
<g>
	<path style="opacity:0.3;fill:#F5E2A7;" d="M291.337,374.175c33.003-19.961,59.512-50.957,75.804-85.779
		c16.974-36.279,21.053-74.31,14.287-113.952c-4.298-25.181-15.08-50.099-34.491-66.705c-14.766-12.632-33.951-18.839-53.27-17.275
		c-23.462,1.899-31.734,11.023-48.834,26.59c-30.923,28.15-70.076,45.55-109.59,59.236c-13.207,4.575-26.672,8.85-38.632,16.084
		c-11.96,7.234-22.483,17.9-26.429,31.309c-4.972,16.897,1.151,35.044,9.202,50.709c19.542,38.021,51.6,69.091,89.372,88.869
		C206.047,382.787,253.124,397.286,291.337,374.175z"/>
	<g>
		<path style="fill:#D9F7F7;" d="M439.672,188.912c-0.631-12.871-6.843-17.469-14.425-17.469c-2.368,0-4.597,0.58-6.571,1.587
			c-1.235-3.662-4.69-6.302-8.768-6.302c-4.568,0-8.353,3.31-9.112,7.66c-2.157-1.833-4.947-2.945-8-2.945
			c-4.729,0-8.833,2.656-10.914,6.556c-2.008-1.072-4.344-1.61-6.822-1.412c-6.487,0.519-11.355,6.2-11.355,12.707
			c0,6.144,4.98,11.124,11.124,11.124h53.399c6.355,0,11.506-5.151,11.506-11.506H439.672z"/>
		<path style="fill:#D9F7F7;" d="M313.741,114.84c-0.65-13.263-7.051-18-14.863-18c-2.44,0-4.737,0.597-6.77,1.635
			c-1.273-3.773-4.833-6.494-9.035-6.494c-4.706,0-8.607,3.411-9.389,7.893c-2.223-1.889-5.097-3.035-8.243-3.035
			c-4.872,0-9.102,2.737-11.246,6.755c-2.069-1.104-4.476-1.659-7.029-1.455c-6.684,0.535-11.701,6.388-11.701,13.094
			c0,6.33,5.132,11.462,11.462,11.462h55.023c6.548,0,11.856-5.308,11.856-11.856H313.741z"/>
		<path style="fill:#D9F7F7;" d="M195.123,194.658c-1.07-21.833-11.607-29.631-24.468-29.631c-4.017,0-7.797,0.983-11.145,2.692
			c-2.095-6.211-7.955-10.69-14.874-10.69c-7.747,0-14.169,5.615-15.456,12.994c-3.659-3.11-8.391-4.996-13.569-4.996
			c-8.021,0-14.984,4.505-18.513,11.12c-3.407-1.818-7.369-2.732-11.572-2.396c-11.004,0.88-19.262,10.516-19.262,21.555
			c0,10.421,8.448,18.869,18.869,18.869h90.578c10.779,0,19.517-8.738,19.517-19.517L195.123,194.658z"/>
	</g>
	<g>
		<linearGradient id="SVGID_1_" gradientUnits="userSpaceOnUse" x1="221.5167" y1="209.9178" x2="351.5969" y2="209.9178">
			<stop  offset="0.0297" style="stop-color:#FFD270"/>
			<stop  offset="1" style="stop-color:#EDE1AF"/>
		</linearGradient>
		<circle style="opacity:0.4;fill:url(#SVGID_1_);" cx="286.557" cy="209.918" r="65.04"/>
		<g style="opacity:0.3;">
			
				<linearGradient id="SVGID_00000053506281763933723090000008080941534161594281_" gradientUnits="userSpaceOnUse" x1="343.6904" y1="223.0587" x2="235.0732" y2="198.0766">
				<stop  offset="0" style="stop-color:#91ECFF"/>
				<stop  offset="1" style="stop-color:#9DD1BB"/>
			</linearGradient>
			<path style="fill:url(#SVGID_00000053506281763933723090000008080941534161594281_);" d="M332.321,198.7
				c-1.99-8.178-6.12-15.507-11.746-21.393c-5.654-5.873-12.803-10.306-20.845-12.639c-4.185-1.221-8.604-1.866-13.174-1.866
				c-3.87,0-7.643,0.467-11.239,1.358c-8.165,1.99-15.493,6.107-21.366,11.733c-5.887,5.654-10.319,12.817-12.652,20.858
				c-1.221,4.172-1.866,8.59-1.866,13.16c0,3.87,0.467,7.63,1.345,11.225c2.003,8.179,6.134,15.506,11.76,21.393
				c5.654,5.887,12.803,10.306,20.845,12.639c4.186,1.221,8.604,1.866,13.174,1.866c3.87,0,7.63-0.467,11.225-1.345
				c8.165-2.004,15.493-6.12,21.366-11.747c5.901-5.667,10.319-12.831,12.652-20.872c1.221-4.172,1.866-8.59,1.866-13.16
				C333.666,206.041,333.2,202.295,332.321,198.7z M286.557,228.67c-2.621,0-5.118-0.535-7.396-1.509
				c-2.168-0.933-4.117-2.264-5.777-3.883c-2.95-2.923-4.94-6.807-5.448-11.143c-0.096-0.727-0.137-1.468-0.137-2.223
				c0-1.619,0.206-3.197,0.59-4.707c1.084-4.172,3.568-7.794,6.93-10.306c1.853-1.386,3.966-2.429,6.258-3.06
				c1.578-0.439,3.252-0.673,4.981-0.673c2.621,0,5.118,0.535,7.396,1.51c2.168,0.933,4.13,2.264,5.777,3.897
				c2.95,2.909,4.926,6.779,5.434,11.115c0.096,0.727,0.137,1.468,0.137,2.223c0,1.633-0.206,3.225-0.604,4.734
				c-1.084,4.172-3.554,7.781-6.916,10.292c-1.839,1.386-3.952,2.429-6.244,3.06C289.96,228.436,288.286,228.67,286.557,228.67z"/>
			<g>
				<g>
					
						<linearGradient id="SVGID_00000165945715368690446590000012546935213877673895_" gradientUnits="userSpaceOnUse" x1="338.578" y1="245.2881" x2="229.9604" y2="220.306">
						<stop  offset="0" style="stop-color:#91ECFF"/>
						<stop  offset="1" style="stop-color:#9DD1BB"/>
					</linearGradient>
					<path style="fill:url(#SVGID_00000165945715368690446590000012546935213877673895_);" d="M279.16,227.16l-5.777,3.335
						l-20.845,12.035l-8.563,4.94l-12.199-21.133l9.002-5.201l21.38-12.337l6.23-3.595c-0.384,1.509-0.59,3.088-0.59,4.707
						c0,0.755,0.041,1.496,0.137,2.223c0.508,4.336,2.498,8.22,5.448,11.143C275.044,224.896,276.992,226.227,279.16,227.16z"/>
				</g>
				<g>
					
						<linearGradient id="SVGID_00000157284351298513608970000009191916443645739706_" gradientUnits="userSpaceOnUse" x1="346.2211" y1="212.0567" x2="237.6039" y2="187.0747">
						<stop  offset="0" style="stop-color:#91ECFF"/>
						<stop  offset="1" style="stop-color:#9DD1BB"/>
					</linearGradient>
					<path style="fill:url(#SVGID_00000157284351298513608970000009191916443645739706_);" d="M281.576,191.838
						c-2.292,0.631-4.405,1.674-6.258,3.06c-3.362,2.511-5.846,6.134-6.93,10.306c-0.384,1.509-0.59,3.088-0.59,4.707
						c0,0.755,0.041,1.496,0.137,2.223l-5.777-3.335L241.3,196.751l-8.563-4.94l12.199-21.133l9.016,5.215l21.366,12.337
						L281.576,191.838z"/>
				</g>
				<g>
					
						<linearGradient id="SVGID_00000037650936094140127270000009476946913056025764_" gradientUnits="userSpaceOnUse" x1="351.4579" y1="189.2871" x2="242.8403" y2="164.305">
						<stop  offset="0" style="stop-color:#91ECFF"/>
						<stop  offset="1" style="stop-color:#9DD1BB"/>
					</linearGradient>
					<path style="fill:url(#SVGID_00000037650936094140127270000009476946913056025764_);" d="M299.73,154.266v42.307
						c-1.647-1.633-3.609-2.964-5.777-3.897c-2.278-0.974-4.775-1.51-7.396-1.51c-1.729,0-3.403,0.233-4.981,0.673
						c-2.292,0.631-4.405,1.674-6.258,3.06v-40.633H299.73z"/>
				</g>
				<g>
					
						<linearGradient id="SVGID_00000042712364088767846070000009502923094318680498_" gradientUnits="userSpaceOnUse" x1="348.801" y1="200.8389" x2="240.1834" y2="175.8568">
						<stop  offset="0" style="stop-color:#91ECFF"/>
						<stop  offset="1" style="stop-color:#9DD1BB"/>
					</linearGradient>
					<path style="fill:url(#SVGID_00000042712364088767846070000009502923094318680498_);" d="M341.337,193.499l-9.016,5.201
						l-21.366,12.337l-6.258,3.609c0.398-1.509,0.604-3.101,0.604-4.734c0-0.755-0.041-1.496-0.137-2.223
						c-0.508-4.336-2.484-8.206-5.434-11.115c-1.647-1.633-3.609-2.964-5.777-3.897l5.777-3.334l20.845-12.035l8.563-4.94
						L341.337,193.499z"/>
				</g>
				<g>
					
						<linearGradient id="SVGID_00000021811250762242817710000004331252232319110789_" gradientUnits="userSpaceOnUse" x1="341.1623" y1="234.0504" x2="232.5449" y2="209.0683">
						<stop  offset="0" style="stop-color:#91ECFF"/>
						<stop  offset="1" style="stop-color:#9DD1BB"/>
					</linearGradient>
					<path style="fill:url(#SVGID_00000021811250762242817710000004331252232319110789_);" d="M340.363,228.011l-12.199,21.133
						l-9.016-5.201l-21.366-12.337l-6.244-3.609c2.292-0.631,4.405-1.674,6.244-3.06c3.362-2.511,5.832-6.12,6.916-10.292
						c0.398-1.509,0.604-3.101,0.604-4.734c0-0.755-0.041-1.496-0.137-2.223l5.791,3.348l20.844,12.035L340.363,228.011z"/>
				</g>
				<g>
					
						<linearGradient id="SVGID_00000067956972703932519290000002117674655283229606_" gradientUnits="userSpaceOnUse" x1="335.9227" y1="256.8318" x2="227.3053" y2="231.8496">
						<stop  offset="0" style="stop-color:#91ECFF"/>
						<stop  offset="1" style="stop-color:#9DD1BB"/>
					</linearGradient>
					<path style="fill:url(#SVGID_00000067956972703932519290000002117674655283229606_);" d="M297.782,224.937v40.633h-24.399
						v-42.293c1.66,1.619,3.609,2.95,5.777,3.883c2.278,0.974,4.775,1.509,7.396,1.509c1.729,0,3.403-0.233,4.981-0.672
						C293.83,227.366,295.943,226.323,297.782,224.937z"/>
				</g>
			</g>
		</g>
	</g>
	<g>
		<g>
			<path style="fill:#FFE386;" d="M200.123,389.277c0.042-0.645,0.108-1.287,0.173-1.929
				c-19.274-15.457-28.847-32.275-29.004-32.557l-1.423,0.793C170.028,355.871,180.013,373.417,200.123,389.277z"/>
		</g>
		<g>
			<path style="fill:#FFC70D;" d="M138.497,301.031c0,0,15.48,0.119,25.534,17.089c16.105,27.185,6.391,36.798,6.391,36.798
				L138.497,301.031z"/>
			
				<linearGradient id="SVGID_00000177463853300239662730000013285114412272197021_" gradientUnits="userSpaceOnUse" x1="652.7096" y1="216.6326" x2="665.9714" y2="216.6326" gradientTransform="matrix(-0.8604 0.5096 0.5096 0.8604 605.6574 -191.0384)">
				<stop  offset="0.0297" style="stop-color:#FFC70D"/>
				<stop  offset="1" style="stop-color:#FFE270"/>
			</linearGradient>
			<path style="fill:url(#SVGID_00000177463853300239662730000013285114412272197021_);" d="M138.497,301.031
				c0,0-7.333,13.634,2.721,30.604c16.105,27.185,29.203,23.283,29.203,23.283L138.497,301.031z"/>
			<g>
				<path style="fill:#F4FBFB;" d="M170.58,355.187c0.149-0.088,0.198-0.279,0.11-0.428l-31.924-53.887
					c-0.088-0.148-0.28-0.197-0.428-0.11c-0.148,0.088-0.197,0.28-0.109,0.428l31.924,53.887
					C170.24,355.227,170.432,355.276,170.58,355.187z"/>
			</g>
			<g>
				<path style="fill:#F4FBFB;" d="M162.359,341.31c0.022-0.013,0.044-0.031,0.064-0.05c0.121-0.123,0.119-0.322-0.004-0.442
					c-0.463-0.453-11.429-11.088-19.494-10.519c-0.171,0.012-0.302,0.161-0.289,0.334c0.012,0.172,0.162,0.301,0.334,0.289
					c7.788-0.55,18.901,10.233,19.012,10.342C162.085,341.365,162.241,341.38,162.359,341.31z"/>
			</g>
			<g>
				<path style="fill:#F4FBFB;" d="M152.784,325.147c0.109-0.065,0.172-0.192,0.148-0.325c-0.019-0.102-1.793-10.3,3.351-13.347
					c0.149-0.088,0.198-0.279,0.11-0.428c-0.088-0.148-0.279-0.197-0.428-0.109c-5.517,3.268-3.726,13.559-3.647,13.996
					c0.031,0.17,0.193,0.282,0.363,0.252C152.718,325.179,152.753,325.165,152.784,325.147z"/>
			</g>
		</g>
		<g>
			<path style="fill:#FFE386;" d="M126.076,393.537c0,0,4.694-14.752,23.879-19.334c30.733-7.34,37.041,4.784,37.041,4.784
				L126.076,393.537z"/>
			
				<linearGradient id="SVGID_00000067201983159347669260000009108603598926600374_" gradientUnits="userSpaceOnUse" x1="955.9896" y1="332.2852" x2="969.2486" y2="332.2852" gradientTransform="matrix(0.2323 0.9726 0.9726 -0.2323 -388.7214 -466.3435)">
				<stop  offset="0.0297" style="stop-color:#FFE386"/>
				<stop  offset="1" style="stop-color:#FFF9E1"/>
			</linearGradient>
			<path style="fill:url(#SVGID_00000067201983159347669260000009108603598926600374_);" d="M126.076,393.537
				c0,0,10.854,11.039,30.038,6.457c30.733-7.34,30.882-21.006,30.882-21.006L126.076,393.537z"/>
			<g>
				<path style="fill:#F4FBFB;" d="M187.3,378.916c-0.04-0.168-0.209-0.271-0.377-0.231l-60.92,14.549
					c-0.168,0.04-0.271,0.208-0.231,0.377c0.04,0.168,0.209,0.271,0.376,0.231l60.92-14.549
					C187.237,379.252,187.34,379.084,187.3,378.916z"/>
			</g>
			<g>
				<path style="fill:#F4FBFB;" d="M171.611,382.662c-0.006-0.025-0.016-0.051-0.029-0.076c-0.082-0.152-0.272-0.209-0.424-0.126
					c-0.569,0.309-13.973,7.636-15.816,15.509c-0.039,0.167,0.065,0.336,0.233,0.375c0.168,0.039,0.336-0.065,0.375-0.233
					c1.779-7.601,15.368-15.027,15.504-15.101C171.583,382.941,171.643,382.797,171.611,382.662z"/>
			</g>
			<g>
				<path style="fill:#F4FBFB;" d="M153.338,387.026c-0.029-0.123-0.133-0.221-0.266-0.238c-0.103-0.012-10.369-1.335-11.758-7.15
					c-0.04-0.168-0.208-0.271-0.376-0.231c-0.168,0.04-0.271,0.208-0.231,0.376c1.489,6.237,11.85,7.572,12.29,7.625
					c0.171,0.02,0.326-0.101,0.348-0.273C153.349,387.099,153.347,387.061,153.338,387.026z"/>
			</g>
		</g>
	</g>
	<g>
		<g>
			<g>
				<path style="fill:#B3D8E3;" d="M256.455,301.078c-55.462-28.411-72.809-85.688-72.986-86.295
					c-0.126-0.432-0.583-0.682-1.01-0.553c-0.432,0.126-0.68,0.579-0.554,1.01c0.179,0.613,17.663,58.407,73.605,87.184
					C255.822,301.973,256.134,301.523,256.455,301.078z"/>
			</g>
			<g>
				<path style="fill:#B3D8E3;" d="M222.012,195.513c0,0,16.311,10.253,15.853,34.796c-0.734,39.317-17.307,43.139-17.307,43.139
					L222.012,195.513z"/>
				
					<linearGradient id="SVGID_00000160873302625783001820000003262893872250806179_" gradientUnits="userSpaceOnUse" x1="727.3715" y1="235.1282" x2="743.8737" y2="235.1282" gradientTransform="matrix(-0.9998 -0.0187 -0.0187 0.9998 952.9101 13.0012)">
					<stop  offset="0" style="stop-color:#7AC0D3"/>
					<stop  offset="1" style="stop-color:#B3D8E3"/>
				</linearGradient>
				<path style="fill:url(#SVGID_00000160873302625783001820000003262893872250806179_);" d="M222.012,195.513
					c0,0-16.682,9.637-17.14,34.18c-0.733,39.317,15.686,43.754,15.686,43.754L222.012,195.513z"/>
				<g>
					<path style="fill:#F4FBFB;" d="M220.551,273.837c0.215,0.004,0.392-0.167,0.396-0.382l1.454-77.935
						c0.004-0.215-0.167-0.392-0.382-0.396c-0.215-0.004-0.392,0.167-0.396,0.382l-1.454,77.935
						C220.165,273.656,220.336,273.833,220.551,273.837z"/>
				</g>
				<g>
					<path style="fill:#F4FBFB;" d="M220.925,253.767c0.033,0.001,0.067-0.003,0.1-0.011c0.208-0.052,0.336-0.263,0.285-0.471
						c-0.194-0.782-4.846-19.215-13.758-23.889c-0.189-0.099-0.425-0.027-0.525,0.164c-0.099,0.19-0.026,0.425,0.164,0.525
						c8.604,4.512,13.316,23.199,13.363,23.386C220.599,253.646,220.754,253.763,220.925,253.767z"/>
				</g>
				<g>
					<path style="fill:#F4FBFB;" d="M221.361,230.39c0.158,0.003,0.308-0.091,0.369-0.247c0.047-0.121,4.84-12.077,12.279-11.939
						c0.215,0.004,0.392-0.167,0.396-0.382c0.004-0.215-0.166-0.392-0.382-0.396c-7.979-0.149-12.815,11.918-13.017,12.432
						c-0.078,0.2,0.02,0.425,0.22,0.504C221.27,230.381,221.317,230.389,221.361,230.39z"/>
				</g>
			</g>
			<g>
				<path style="fill:#B3D8E3;" d="M118.121,249.316c0,0,9.756-16.613,34.301-16.897c39.321-0.454,43.642,15.996,43.642,15.996
					L118.121,249.316z"/>
				
					<linearGradient id="SVGID_00000015346167247251690230000011451727431210907310_" gradientUnits="userSpaceOnUse" x1="989.5562" y1="180.6197" x2="1006.0579" y2="180.6197" gradientTransform="matrix(0.0116 0.9999 0.9999 -0.0116 -34.9881 -738.4981)">
					<stop  offset="0" style="stop-color:#7AC0D3"/>
					<stop  offset="1" style="stop-color:#B3D8E3"/>
				</linearGradient>
				<path style="fill:url(#SVGID_00000015346167247251690230000011451727431210907310_);" d="M118.121,249.316
					c0,0,10.137,16.383,34.683,16.1c39.321-0.454,43.261-17.001,43.261-17.001L118.121,249.316z"/>
				<g>
					<path style="fill:#F4FBFB;" d="M196.453,248.411c-0.003-0.215-0.178-0.387-0.393-0.384l-77.943,0.901
						c-0.215,0.002-0.387,0.178-0.384,0.393c0.003,0.215,0.178,0.387,0.393,0.384l77.943-0.901
						C196.284,248.802,196.455,248.626,196.453,248.411z"/>
				</g>
				<g>
					<path style="fill:#F4FBFB;" d="M176.38,248.643c0-0.033-0.005-0.067-0.014-0.1c-0.058-0.207-0.273-0.328-0.479-0.27
						c-0.776,0.218-19.06,5.424-23.462,14.473c-0.093,0.192-0.014,0.426,0.18,0.52c0.193,0.094,0.426,0.013,0.52-0.18
						c4.25-8.737,22.786-14.011,22.972-14.063C176.27,248.973,176.383,248.814,176.38,248.643z"/>
				</g>
				<g>
					<path style="fill:#F4FBFB;" d="M153.002,248.913c-0.002-0.158-0.1-0.305-0.258-0.362c-0.122-0.044-12.218-4.473-12.304-11.912
						c-0.003-0.215-0.179-0.387-0.393-0.384c-0.215,0.003-0.387,0.178-0.384,0.393c0.092,7.979,12.299,12.449,12.82,12.635
						c0.202,0.072,0.424-0.033,0.497-0.235C152.995,249.004,153.002,248.958,153.002,248.913z"/>
				</g>
			</g>
		</g>
		<g>
			<path style="fill:#3FA7CC;" d="M159.447,140.291c0,0,19.074,4.477,26.735,28.235c12.273,38.06-2.406,47.207-2.406,47.207
				L159.447,140.291z"/>
			
				<linearGradient id="SVGID_00000151516863916418465450000003789258916194364561_" gradientUnits="userSpaceOnUse" x1="800.606" y1="191.451" x2="817.3859" y2="191.451" gradientTransform="matrix(-0.9517 0.3069 0.3069 0.9517 874.7921 -249.898)">
				<stop  offset="0" style="stop-color:#0087B8"/>
				<stop  offset="1" style="stop-color:#3FA7CC"/>
			</linearGradient>
			<path style="fill:url(#SVGID_00000151516863916418465450000003789258916194364561_);" d="M159.447,140.291
				c0,0-12.864,14.777-5.203,38.535c12.273,38.059,29.532,36.908,29.532,36.908L159.447,140.291z"/>
			<g>
				<path style="fill:#EBF7F7;" d="M183.897,216.11c0.208-0.067,0.322-0.29,0.255-0.498l-24.329-75.442
					c-0.067-0.208-0.29-0.322-0.498-0.255c-0.208,0.067-0.322,0.29-0.255,0.498l24.329,75.442
					C183.467,216.063,183.689,216.177,183.897,216.11z"/>
			</g>
			<g>
				<path style="fill:#EBF7F7;" d="M177.632,196.681c0.031-0.01,0.063-0.025,0.093-0.044c0.183-0.118,0.237-0.363,0.118-0.547
					c-0.445-0.688-11.005-16.882-21.119-18.436c-0.214-0.033-0.418,0.114-0.451,0.331c-0.033,0.216,0.115,0.417,0.331,0.451
					c9.766,1.5,20.467,17.918,20.573,18.083C177.278,196.673,177.466,196.735,177.632,196.681z"/>
			</g>
			<g>
				<path style="fill:#EBF7F7;" d="M170.335,174.053c0.153-0.049,0.266-0.189,0.274-0.359c0.005-0.132,0.669-13.214,7.869-15.536
					c0.208-0.067,0.322-0.29,0.255-0.498c-0.067-0.208-0.29-0.322-0.498-0.255c-7.723,2.491-8.392,15.694-8.416,16.255
					c-0.009,0.218,0.16,0.402,0.378,0.412C170.244,174.074,170.291,174.066,170.335,174.053z"/>
			</g>
		</g>
	</g>
	<g>
		<g>
			<g>
				<path style="fill:#B3D8E3;" d="M262.898,376.568c47.565,4.221,80.253-28.904,80.577-29.239c0.216-0.223,0.211-0.58-0.013-0.797
					c-0.22-0.217-0.58-0.211-0.797,0.013c-0.32,0.331-32.651,33.072-79.669,28.9C215.479,371.229,215.822,372.391,262.898,376.568z"
					/>
			</g>
			<g>
				<path style="fill:#B3D8E3;" d="M325.301,322.324c0,0-13.286,1.012-20.922,16.175c-12.232,24.291-3.324,31.974-3.324,31.974
					L325.301,322.324z"/>
				
					<linearGradient id="SVGID_00000032610833039242263370000003391052804424998570_" gradientUnits="userSpaceOnUse" x1="1120.8726" y1="364.5334" x2="1132.2834" y2="364.5334" gradientTransform="matrix(0.8932 0.4498 -0.4498 0.8932 -524.0192 -483.371)">
					<stop  offset="0" style="stop-color:#7AC0D3"/>
					<stop  offset="1" style="stop-color:#B3D8E3"/>
				</linearGradient>
				<path style="fill:url(#SVGID_00000032610833039242263370000003391052804424998570_);" d="M325.301,322.324
					c0,0,7.098,11.277-0.538,26.44c-12.232,24.291-23.708,21.71-23.708,21.71L325.301,322.324z"/>
				<g>
					<path style="fill:#F4FBFB;" d="M300.934,370.714c-0.133-0.067-0.186-0.228-0.119-0.361l24.246-48.15
						c0.067-0.133,0.228-0.186,0.361-0.119c0.133,0.067,0.186,0.228,0.119,0.361l-24.246,48.15
						C301.228,370.728,301.066,370.781,300.934,370.714z"/>
				</g>
				<g>
					<path style="fill:#F4FBFB;" d="M307.177,358.314c-0.02-0.01-0.04-0.024-0.058-0.039c-0.111-0.099-0.121-0.269-0.022-0.38
						c0.371-0.416,9.162-10.193,16.122-10.178c0.147,0,0.269,0.121,0.268,0.27c-0.001,0.148-0.121,0.268-0.27,0.268
						c-6.719-0.014-15.629,9.898-15.718,9.998C307.416,358.346,307.283,358.368,307.177,358.314z"/>
				</g>
				<g>
					<path style="fill:#F4FBFB;" d="M314.45,343.872c-0.098-0.049-0.159-0.155-0.146-0.27c0.01-0.089,0.934-8.95-3.662-11.264
						c-0.133-0.067-0.186-0.228-0.119-0.361c0.067-0.133,0.228-0.186,0.361-0.119c4.929,2.482,3.997,11.424,3.954,11.804
						c-0.017,0.147-0.149,0.254-0.297,0.237C314.509,343.896,314.478,343.886,314.45,343.872z"/>
				</g>
			</g>
			<g>
				<path style="fill:#B3D8E3;" d="M371.509,388.748c0,0-0.61-13.31-15.536-21.4c-23.91-12.96-31.859-4.289-31.859-4.289
					L371.509,388.748z"/>
				
					<linearGradient id="SVGID_00000072268261122566962920000010884197474038587052_" gradientUnits="userSpaceOnUse" x1="1102.9794" y1="-196.6973" x2="1114.3915" y2="-196.6973" gradientTransform="matrix(-0.4765 0.8792 -0.8792 -0.4765 700.445 -687.5634)">
					<stop  offset="0" style="stop-color:#7AC0D3"/>
					<stop  offset="1" style="stop-color:#B3D8E3"/>
				</linearGradient>
				<path style="fill:url(#SVGID_00000072268261122566962920000010884197474038587052_);" d="M371.509,388.748
					c0,0-11.486,6.754-26.411-1.336c-23.91-12.96-20.984-24.353-20.984-24.353L371.509,388.748z"/>
				<g>
					<path style="fill:#F4FBFB;" d="M323.877,362.931c0.071-0.131,0.234-0.179,0.365-0.108l47.395,25.689
						c0.131,0.071,0.179,0.234,0.108,0.365c-0.071,0.131-0.234,0.179-0.365,0.108l-47.395-25.689
						C323.854,363.224,323.806,363.061,323.877,362.931z"/>
				</g>
				<g>
					<path style="fill:#F4FBFB;" d="M336.082,369.546c0.011-0.02,0.025-0.039,0.041-0.057c0.102-0.108,0.273-0.113,0.38-0.011
						c0.405,0.384,9.911,9.466,9.687,16.422c-0.005,0.147-0.129,0.265-0.278,0.26c-0.148-0.005-0.265-0.129-0.26-0.278
						c0.217-6.716-9.422-15.921-9.519-16.013C336.044,369.784,336.026,369.651,336.082,369.546z"/>
				</g>
				<g>
					<path style="fill:#F4FBFB;" d="M350.299,377.252c0.052-0.096,0.16-0.154,0.274-0.138c0.089,0.013,8.917,1.204,11.369-3.32
						c0.071-0.131,0.234-0.179,0.365-0.108c0.131,0.071,0.179,0.234,0.108,0.365c-2.63,4.852-11.54,3.65-11.918,3.596
						c-0.147-0.021-0.249-0.157-0.228-0.304C350.273,377.31,350.284,377.279,350.299,377.252z"/>
				</g>
			</g>
		</g>
		<g>
			<path style="fill:#3FA7CC;" d="M381.388,308.718c0,0-13.113-3.412-25.463,8.652c-19.784,19.326-13.753,29.657-13.753,29.657
				L381.388,308.718z"/>
			
				<linearGradient id="SVGID_00000061470223864556875060000000790420446599245237_" gradientUnits="userSpaceOnUse" x1="1205.7899" y1="208.5727" x2="1217.3954" y2="208.5727" gradientTransform="matrix(0.6988 0.7153 -0.7153 0.6988 -331.6344 -680.3805)">
				<stop  offset="0" style="stop-color:#0087B8"/>
				<stop  offset="1" style="stop-color:#3FA7CC"/>
			</linearGradient>
			<path style="fill:url(#SVGID_00000061470223864556875060000000790420446599245237_);" d="M381.388,308.718
				c0,0,3.105,13.19-9.245,25.254c-19.784,19.326-29.971,13.055-29.971,13.055L381.388,308.718z"/>
			<g>
				<path style="fill:#EBF7F7;" d="M341.976,347.218c-0.106-0.108-0.104-0.281,0.005-0.387l39.216-38.309
					c0.108-0.106,0.281-0.103,0.387,0.005c0.106,0.108,0.104,0.281-0.005,0.387l-39.216,38.309
					C342.255,347.328,342.082,347.326,341.976,347.218z"/>
			</g>
			<g>
				<path style="fill:#EBF7F7;" d="M352.075,337.352c-0.016-0.016-0.03-0.036-0.043-0.057c-0.074-0.132-0.027-0.299,0.104-0.373
					c0.494-0.278,12.178-6.78,18.867-4.468c0.142,0.049,0.219,0.205,0.169,0.348c-0.05,0.143-0.205,0.218-0.348,0.169
					c-6.458-2.232-18.3,4.361-18.419,4.428C352.295,337.461,352.16,337.439,352.075,337.352z"/>
			</g>
			<g>
				<path style="fill:#EBF7F7;" d="M363.838,325.862c-0.078-0.079-0.102-0.201-0.052-0.308c0.039-0.082,3.853-8.3,0.196-12.043
					c-0.106-0.108-0.104-0.281,0.005-0.387c0.108-0.106,0.281-0.104,0.387,0.004c3.922,4.015,0.073,12.308-0.093,12.659
					c-0.065,0.136-0.227,0.195-0.364,0.13C363.887,325.904,363.86,325.884,363.838,325.862z"/>
			</g>
		</g>
	</g>
	<g>
		
			<linearGradient id="SVGID_00000037670910085185965530000001154677939064294579_" gradientUnits="userSpaceOnUse" x1="66.3628" y1="300.9475" x2="131.5862" y2="300.9475">
			<stop  offset="0.0297" style="stop-color:#FFD270"/>
			<stop  offset="1" style="stop-color:#EDE1AF"/>
		</linearGradient>
		
			<circle style="opacity:0.4;fill:url(#SVGID_00000037670910085185965530000001154677939064294579_);" cx="98.975" cy="300.947" r="32.612"/>
		<g style="opacity:0.3;">
			
				<linearGradient id="SVGID_00000048466654494759037650000010881741243545395841_" gradientUnits="userSpaceOnUse" x1="121.7132" y1="285.1544" x2="72.1727" y2="319.5575">
				<stop  offset="0" style="stop-color:#9DD1BB"/>
				<stop  offset="1" style="stop-color:#91ECFF"/>
			</linearGradient>
			<path style="fill:url(#SVGID_00000048466654494759037650000010881741243545395841_);" d="M121.921,295.323
				c-0.998-4.101-3.069-7.775-5.89-10.727c-2.835-2.945-6.42-5.167-10.452-6.337c-2.099-0.612-4.314-0.936-6.605-0.936
				c-1.94,0-3.833,0.234-5.635,0.681c-4.094,0.998-7.768,3.062-10.713,5.883c-2.952,2.835-5.174,6.427-6.344,10.458
				c-0.612,2.092-0.936,4.307-0.936,6.599c0,1.94,0.234,3.826,0.674,5.628c1.005,4.101,3.076,7.775,5.897,10.727
				c2.835,2.952,6.42,5.167,10.452,6.337c2.099,0.612,4.314,0.936,6.605,0.936c1.94,0,3.826-0.234,5.628-0.674
				c4.094-1.005,7.768-3.069,10.713-5.89c2.959-2.842,5.174-6.434,6.344-10.465c0.612-2.092,0.936-4.307,0.936-6.599
				C122.596,299.004,122.362,297.125,121.921,295.323z M98.975,310.35c-1.314,0-2.567-0.268-3.709-0.757
				c-1.087-0.468-2.064-1.135-2.897-1.947c-1.479-1.465-2.477-3.413-2.732-5.587c-0.048-0.365-0.069-0.736-0.069-1.115
				c0-0.812,0.103-1.603,0.296-2.36c0.543-2.092,1.789-3.908,3.475-5.167c0.929-0.695,1.988-1.218,3.137-1.534
				c0.791-0.22,1.631-0.337,2.498-0.337c1.314,0,2.566,0.268,3.709,0.757c1.087,0.468,2.071,1.135,2.897,1.954
				c1.479,1.459,2.47,3.399,2.725,5.573c0.048,0.365,0.069,0.736,0.069,1.115c0,0.819-0.103,1.617-0.303,2.374
				c-0.544,2.092-1.782,3.901-3.468,5.16c-0.922,0.695-1.982,1.218-3.131,1.534C100.681,310.233,99.841,310.35,98.975,310.35z"/>
			<g>
				<g>
					
						<linearGradient id="SVGID_00000005252565353073644870000010383527037634430143_" gradientUnits="userSpaceOnUse" x1="120.5964" y1="283.5463" x2="71.0559" y2="317.9494">
						<stop  offset="0" style="stop-color:#9DD1BB"/>
						<stop  offset="1" style="stop-color:#91ECFF"/>
					</linearGradient>
					<path style="fill:url(#SVGID_00000005252565353073644870000010383527037634430143_);" d="M95.266,309.593l-2.897,1.672
						l-10.452,6.034l-4.293,2.477l-6.117-10.596l4.514-2.608l10.72-6.186l3.124-1.803c-0.193,0.757-0.296,1.548-0.296,2.36
						c0,0.378,0.021,0.75,0.069,1.115c0.255,2.174,1.252,4.122,2.732,5.587C93.202,308.458,94.179,309.125,95.266,309.593z"/>
				</g>
				<g>
					
						<linearGradient id="SVGID_00000070090861236165448590000004142062691303258273_" gradientUnits="userSpaceOnUse" x1="112.4518" y1="271.8181" x2="62.9084" y2="306.2233">
						<stop  offset="0" style="stop-color:#9DD1BB"/>
						<stop  offset="1" style="stop-color:#91ECFF"/>
					</linearGradient>
					<path style="fill:url(#SVGID_00000070090861236165448590000004142062691303258273_);" d="M96.477,291.882
						c-1.149,0.316-2.209,0.839-3.137,1.534c-1.686,1.259-2.931,3.076-3.475,5.167c-0.193,0.757-0.296,1.548-0.296,2.36
						c0,0.378,0.021,0.75,0.069,1.115l-2.897-1.672l-10.458-6.041l-4.294-2.477l6.117-10.596l4.521,2.615l10.713,6.186
						L96.477,291.882z"/>
				</g>
				<g>
					
						<linearGradient id="SVGID_00000163050335428722924250000003750277276535111316_" gradientUnits="userSpaceOnUse" x1="113.768" y1="273.7132" x2="64.2275" y2="308.1163">
						<stop  offset="0" style="stop-color:#9DD1BB"/>
						<stop  offset="1" style="stop-color:#91ECFF"/>
					</linearGradient>
					<path style="fill:url(#SVGID_00000163050335428722924250000003750277276535111316_);" d="M105.58,273.043v21.213
						c-0.826-0.819-1.81-1.486-2.897-1.954c-1.142-0.488-2.395-0.757-3.709-0.757c-0.867,0-1.707,0.117-2.498,0.337
						c-1.149,0.316-2.209,0.839-3.137,1.534v-20.374H105.58z"/>
				</g>
				<g>
					
						<linearGradient id="SVGID_00000080907618577128082390000010181606626671194244_" gradientUnits="userSpaceOnUse" x1="122.8321" y1="286.7657" x2="73.2919" y2="321.1685">
						<stop  offset="0" style="stop-color:#9DD1BB"/>
						<stop  offset="1" style="stop-color:#91ECFF"/>
					</linearGradient>
					<path style="fill:url(#SVGID_00000080907618577128082390000010181606626671194244_);" d="M126.442,292.715l-4.521,2.608
						l-10.713,6.186l-3.137,1.81c0.2-0.757,0.303-1.555,0.303-2.374c0-0.378-0.021-0.75-0.069-1.115
						c-0.255-2.174-1.245-4.115-2.725-5.573c-0.826-0.819-1.81-1.486-2.897-1.954l2.897-1.672l10.452-6.034l4.293-2.477
						L126.442,292.715z"/>
				</g>
				<g>
					
						<linearGradient id="SVGID_00000099658907344782084510000004049206949354091175_" gradientUnits="userSpaceOnUse" x1="130.9711" y1="298.486" x2="81.4324" y2="332.8878">
						<stop  offset="0" style="stop-color:#9DD1BB"/>
						<stop  offset="1" style="stop-color:#91ECFF"/>
					</linearGradient>
					<path style="fill:url(#SVGID_00000099658907344782084510000004049206949354091175_);" d="M125.953,310.02l-6.117,10.596
						l-4.521-2.608l-10.713-6.186l-3.131-1.81c1.149-0.316,2.209-0.839,3.131-1.534c1.686-1.259,2.924-3.069,3.468-5.16
						c0.2-0.757,0.303-1.555,0.303-2.374c0-0.378-0.021-0.75-0.069-1.115l2.904,1.679l10.452,6.034L125.953,310.02z"/>
				</g>
				<g>
					
						<linearGradient id="SVGID_00000134236539043246254130000011388668877222345353_" gradientUnits="userSpaceOnUse" x1="129.6612" y1="296.5992" x2="80.1206" y2="331.0024">
						<stop  offset="0" style="stop-color:#9DD1BB"/>
						<stop  offset="1" style="stop-color:#91ECFF"/>
					</linearGradient>
					<path style="fill:url(#SVGID_00000134236539043246254130000011388668877222345353_);" d="M104.603,308.478v20.373H92.369
						v-21.206c0.833,0.812,1.81,1.479,2.897,1.947c1.142,0.489,2.394,0.757,3.709,0.757c0.867,0,1.706-0.117,2.498-0.337
						C102.621,309.696,103.681,309.173,104.603,308.478z"/>
				</g>
			</g>
		</g>
	</g>
	<g>
		
			<linearGradient id="SVGID_00000100385027718763510470000003285315802983047579_" gradientUnits="userSpaceOnUse" x1="243.8971" y1="409.7732" x2="243.8971" y2="178.6108">
			<stop  offset="0" style="stop-color:#2DA875"/>
			<stop  offset="1" style="stop-color:#62C1C5"/>
		</linearGradient>
		<path style="fill:url(#SVGID_00000100385027718763510470000003285315802983047579_);" d="M316.801,391
			c0,10.326-8.448,18.774-18.774,18.774H189.767c-10.326,0-18.774-8.448-18.774-18.774V197.385c0-10.325,8.448-18.774,18.774-18.774
			h108.261c10.326,0,18.774,8.448,18.774,18.774V391z"/>
		<path style="fill:#19888D;" d="M189.766,401.371c-6.211,0-11.264-5.032-11.264-11.218V197.338c0-6.186,5.053-11.218,11.264-11.218
			h108.261c6.212,0,11.264,5.032,11.264,11.218v192.815c0,6.186-5.053,11.218-11.264,11.218H189.766z"/>
		<g>
			<defs>
				<path id="SVGID_00000038403323374414558320000006005131814163276672_" d="M189.766,393.892c-2.071,0-3.755-1.678-3.755-3.739
					V197.338c0-2.062,1.684-3.739,3.755-3.739h108.261c2.071,0,3.755,1.677,3.755,3.739v192.815c0,2.061-1.684,3.739-3.755,3.739
					H189.766z"/>
			</defs>
			<use xlink:href="#SVGID_00000038403323374414558320000006005131814163276672_"  style="overflow:visible;fill:#EBF7F7;"/>
			<clipPath id="SVGID_00000086652532606207466730000006842208358008926344_">
				<use xlink:href="#SVGID_00000038403323374414558320000006005131814163276672_"  style="overflow:visible;"/>
			</clipPath>
			<g style="clip-path:url(#SVGID_00000086652532606207466730000006842208358008926344_);">
				
					<linearGradient id="SVGID_00000092448708036657142130000006661744626954548631_" gradientUnits="userSpaceOnUse" x1="248.196" y1="356.6417" x2="248.196" y2="262.93">
					<stop  offset="0.0297" style="stop-color:#FFAE00"/>
					<stop  offset="1" style="stop-color:#EDD576"/>
				</linearGradient>
				<path style="fill:url(#SVGID_00000092448708036657142130000006661744626954548631_);" d="M219.723,276.719
					c-1.966,2.622-9.801,55.861-18.485,71.919c-8.684,16.057,101.298,3.927,94.062-1.701c-11.797-9.176-22.548-65.43-20.769-82.753
					C256.32,258.448,221.69,274.097,219.723,276.719z"/>
				<path style="fill:#F59D83;" d="M244.88,291.629c-2.054,0-8.144-1.664-8.157,1.3c-0.013,2.964,0.287,9.13,0,12.107
					c-0.287,2.977-6.185,12.153-10.282,14.119c-4.096,1.966,13.248,12.453,21.616,12.453c8.368,0,23.961-10.159,21.667-12.453
					c-2.294-2.294-11.005-9.068-11.497-14.119c-0.491-5.052,1.81-11.442-0.491-13.08C255.436,290.318,244.88,291.629,244.88,291.629
					z"/>
				<path style="fill:#F7B690;" d="M246.593,228.796c-13.503,0-30.965,17.694-30.965,33.526c0,15.832,23.049,37.251,29.801,37.251
					s29.103-20.488,29.103-35.389C274.531,249.284,265.985,228.796,246.593,228.796z"/>
				
					<linearGradient id="SVGID_00000178906198058541177100000000792044231493393083_" gradientUnits="userSpaceOnUse" x1="244.8799" y1="258.9904" x2="244.8799" y2="210.8186">
					<stop  offset="0.0297" style="stop-color:#FFAE00"/>
					<stop  offset="1" style="stop-color:#EDD576"/>
				</linearGradient>
				<path style="fill:url(#SVGID_00000178906198058541177100000000792044231493393083_);" d="M226.887,238.292
					c1.065,7.865,5.535,17.995,31.341,17.995c-5.653-3.195-6.93-7.286-6.718-9.503c1.774,2.806,6.165,11.531,19.56,11.531
					c-6.882-5.161-4.095-7.673-1.598-4.731c2.765,3.257,4.117,5.407,8.663,5.407c-1.966-5.161,0-12.78,2.581-12.78
					c2.581,0-5.284-35.391-33.302-35.391c-28.018,0-38.832,23.84-38.832,35.883c0,12.043,5.407,12.289,5.407,12.289
					S225.658,245.419,226.887,238.292z"/>
				
					<linearGradient id="SVGID_00000151523041086828295040000005341198906977068698_" gradientUnits="userSpaceOnUse" x1="206.7795" y1="259.442" x2="217.0452" y2="259.442">
					<stop  offset="0" style="stop-color:#0A3C5F"/>
					<stop  offset="1" style="stop-color:#051F30"/>
				</linearGradient>
				<path style="fill:url(#SVGID_00000151523041086828295040000005341198906977068698_);" d="M210.712,247.094
					c-0.055,0.04-0.108,0-0.164,0c-2.172,0-3.769,4.915-3.769,11.953c0,7.037,1.76,12.743,3.932,12.743h6.333v-24.696H210.712z"/>
				
					<linearGradient id="SVGID_00000061473190189857792940000002194198484035500170_" gradientUnits="userSpaceOnUse" x1="274.531" y1="259.442" x2="284.7966" y2="259.442">
					<stop  offset="0" style="stop-color:#0A3C5F"/>
					<stop  offset="1" style="stop-color:#051F30"/>
				</linearGradient>
				<path style="fill:url(#SVGID_00000061473190189857792940000002194198484035500170_);" d="M280.864,247.094
					c0.055,0.04,0.108,0,0.164,0c2.172,0,3.768,4.915,3.768,11.953c0,7.037-1.76,12.743-3.932,12.743h-6.333v-24.696H280.864z"/>
				
					<linearGradient id="SVGID_00000006673199641104696960000012677856946815454882_" gradientUnits="userSpaceOnUse" x1="225.6944" y1="285.7219" x2="225.6944" y2="271.7898">
					<stop  offset="0" style="stop-color:#000203"/>
					<stop  offset="1" style="stop-color:#0A4063"/>
				</linearGradient>
				<path style="fill:url(#SVGID_00000006673199641104696960000012677856946815454882_);" d="M227.365,281.421
					c-2.194,0-4.273-0.98-5.668-2.673c-1.435-1.74-5.738-6.958-5.738-6.958h-4.242c0,0,6.964,8.445,9.285,11.259
					c1.396,1.692,3.475,2.673,5.668,2.673c3.251,0,13.003,0,13.003,0v-4.301C239.672,281.421,230.442,281.421,227.365,281.421z"/>
				
					<linearGradient id="SVGID_00000177483825258086316570000007986941197095781299_" gradientUnits="userSpaceOnUse" x1="243.5432" y1="287.1352" x2="243.5432" y2="280.0077">
					<stop  offset="0" style="stop-color:#000203"/>
					<stop  offset="1" style="stop-color:#0A4063"/>
				</linearGradient>
				<path style="fill:url(#SVGID_00000177483825258086316570000007986941197095781299_);" d="M250.363,283.571
					c0,1.968-3.053,3.564-6.82,3.564c-3.767,0-6.82-1.596-6.82-3.564s3.053-3.564,6.82-3.564
					C247.31,280.008,250.363,281.603,250.363,283.571z"/>
				
					<linearGradient id="SVGID_00000157988953041822153500000007532267090709746108_" gradientUnits="userSpaceOnUse" x1="248.0832" y1="431.9261" x2="248.0832" y2="318.6661">
					<stop  offset="0" style="stop-color:#32BA81"/>
					<stop  offset="1" style="stop-color:#4FCFCF"/>
				</linearGradient>
				<path style="fill:url(#SVGID_00000157988953041822153500000007532267090709746108_);" d="M314.62,359.299
					c-9.503-18.024-42.929-44.567-44.895-40.143c-1.947,4.38-21.263,7.575-21.642,7.637c-0.379-0.062-19.695-3.257-21.642-7.637
					c-1.966-4.424-35.391,22.12-44.895,40.143c-9.503,18.023-8.848,61.28-8.848,67.834c0,6.554,32.442,6.226,32.442,0
					c0-6.226-7.209-9.631-0.983-22.738c3.098-6.522,30.967-9.47,46.205-9.47c13.395,0,38.548,2.948,41.646,9.47
					c6.226,13.108-0.983,16.512-0.983,22.738c0,6.226,32.442,6.554,32.442,0C323.468,420.579,324.123,377.322,314.62,359.299z"/>
			</g>
		</g>
	</g>
</g>
</svg>
